<svg xmlns="http://www.w3.org/2000/svg" style="display:none" aria-hidden="true">
<defs>


</defs>


<symbol id="i-home" viewBox="0 0 24 24"><g class="dgo-i" stroke="currentColor" stroke-width="1.5" stroke-linecap="round" stroke-linejoin="round" fill="none"><path d="M3 11.5L12 4l9 7.5"></path><path d="M5 10.5V20h14v-9.5"></path><path d="M10 20v-5h4v5"></path></g></symbol>
<symbol id="i-grid" viewBox="0 0 24 24"><g class="dgo-i" stroke="currentColor" stroke-width="1.5" stroke-linecap="round" stroke-linejoin="round" fill="none"><rect x="3" y="3" width="7" height="7"></rect><rect x="14" y="3" width="7" height="7"></rect><rect x="3" y="14" width="7" height="7"></rect><rect x="14" y="14" width="7" height="7"></rect></g></symbol>
<symbol id="i-menu" viewBox="0 0 24 24"><g class="dgo-i" stroke="currentColor" stroke-width="1.5" stroke-linecap="round" stroke-linejoin="round" fill="none"><path d="M3 6h18"></path><path d="M3 12h18"></path><path d="M3 18h18"></path></g></symbol>
<symbol id="i-close" viewBox="0 0 24 24"><g class="dgo-i" stroke="currentColor" stroke-width="1.5" stroke-linecap="round" stroke-linejoin="round" fill="none"><path d="M6 6l12 12M18 6L6 18"></path></g></symbol>
<symbol id="i-chevron-down" viewBox="0 0 24 24"><g class="dgo-i" stroke="currentColor" stroke-width="1.5" stroke-linecap="round" stroke-linejoin="round" fill="none"><path d="M6 9l6 6 6-6"></path></g></symbol>
<symbol id="i-chevron-right" viewBox="0 0 24 24"><g class="dgo-i" stroke="currentColor" stroke-width="1.5" stroke-linecap="round" stroke-linejoin="round" fill="none"><path d="M9 6l6 6-6 6"></path></g></symbol>
<symbol id="i-chevron-left" viewBox="0 0 24 24"><g class="dgo-i" stroke="currentColor" stroke-width="1.5" stroke-linecap="round" stroke-linejoin="round" fill="none"><path d="M15 6l-6 6 6 6"></path></g></symbol>
<symbol id="i-arrow-right" viewBox="0 0 24 24"><g class="dgo-i" stroke="currentColor" stroke-width="1.5" stroke-linecap="round" stroke-linejoin="round" fill="none"><path d="M5 12h14M13 6l6 6-6 6"></path></g></symbol>
<symbol id="i-arrow-up" viewBox="0 0 24 24"><g class="dgo-i" stroke="currentColor" stroke-width="1.5" stroke-linecap="round" stroke-linejoin="round" fill="none"><path d="M12 19V5M6 11l6-6 6 6"></path></g></symbol>
<symbol id="i-arrow-down" viewBox="0 0 24 24"><g class="dgo-i" stroke="currentColor" stroke-width="1.5" stroke-linecap="round" stroke-linejoin="round" fill="none"><path d="M12 5v14M6 13l6 6 6-6"></path></g></symbol>


<symbol id="i-search" viewBox="0 0 24 24"><g class="dgo-i" stroke="currentColor" stroke-width="1.5" stroke-linecap="round" stroke-linejoin="round" fill="none"><circle cx="11" cy="11" r="7"></circle><path d="M20 20l-3.5-3.5"></path></g></symbol>
<symbol id="i-filter" viewBox="0 0 24 24"><g class="dgo-i" stroke="currentColor" stroke-width="1.5" stroke-linecap="round" stroke-linejoin="round" fill="none"><path d="M3 5h18l-7 9v6l-4-2v-4z"></path></g></symbol>
<symbol id="i-plus" viewBox="0 0 24 24"><g class="dgo-i" stroke="currentColor" stroke-width="1.5" stroke-linecap="round" stroke-linejoin="round" fill="none"><path d="M12 5v14M5 12h14"></path></g></symbol>
<symbol id="i-edit" viewBox="0 0 24 24"><g class="dgo-i" stroke="currentColor" stroke-width="1.5" stroke-linecap="round" stroke-linejoin="round" fill="none"><path d="M4 20h4l10-10-4-4L4 16z"></path><path d="M14 6l4 4"></path></g></symbol>
<symbol id="i-trash" viewBox="0 0 24 24"><g class="dgo-i" stroke="currentColor" stroke-width="1.5" stroke-linecap="round" stroke-linejoin="round" fill="none"><path d="M4 7h16"></path><path d="M9 7V4h6v3"></path><path d="M6 7l1 13h10l1-13"></path><path d="M10 11v6M14 11v6"></path></g></symbol>
<symbol id="i-download" viewBox="0 0 24 24"><g class="dgo-i" stroke="currentColor" stroke-width="1.5" stroke-linecap="round" stroke-linejoin="round" fill="none"><path d="M12 4v12"></path><path d="M6 12l6 6 6-6"></path><path d="M4 20h16"></path></g></symbol>
<symbol id="i-upload" viewBox="0 0 24 24"><g class="dgo-i" stroke="currentColor" stroke-width="1.5" stroke-linecap="round" stroke-linejoin="round" fill="none"><path d="M12 20V8"></path><path d="M6 12l6-6 6 6"></path><path d="M4 4h16"></path></g></symbol>
<symbol id="i-refresh" viewBox="0 0 24 24"><g class="dgo-i" stroke="currentColor" stroke-width="1.5" stroke-linecap="round" stroke-linejoin="round" fill="none"><path d="M4 12a8 8 0 0 1 14-5.3L20 5"></path><path d="M20 4v5h-5"></path><path d="M20 12a8 8 0 0 1-14 5.3L4 19"></path><path d="M4 20v-5h5"></path></g></symbol>
<symbol id="i-check" viewBox="0 0 24 24"><g class="dgo-i" stroke="currentColor" stroke-width="1.5" stroke-linecap="round" stroke-linejoin="round" fill="none"><path d="M5 12l5 5L20 7"></path></g></symbol>
<symbol id="i-more" viewBox="0 0 24 24"><g class="dgo-i" stroke="currentColor" stroke-width="2" stroke-linecap="round" stroke-linejoin="round" fill="none"><circle cx="6" cy="12" r="0.5"></circle><circle cx="12" cy="12" r="0.5"></circle><circle cx="18" cy="12" r="0.5"></circle></g></symbol>
<symbol id="i-send" viewBox="0 0 24 24"><g class="dgo-i" stroke="currentColor" stroke-width="1.5" stroke-linecap="round" stroke-linejoin="round" fill="none"><path d="M3 12l18-8-7 18-3-7-8-3z"></path></g></symbol>


<symbol id="i-info" viewBox="0 0 24 24"><g class="dgo-i" stroke="currentColor" stroke-width="1.5" stroke-linecap="round" stroke-linejoin="round" fill="none"><circle cx="12" cy="12" r="9"></circle><path d="M12 11v6"></path><circle cx="12" cy="8" r="0.5" stroke-width="1.5"></circle></g></symbol>
<symbol id="i-check-circle" viewBox="0 0 24 24"><g class="dgo-i" stroke="currentColor" stroke-width="1.5" stroke-linecap="round" stroke-linejoin="round" fill="none"><circle cx="12" cy="12" r="9"></circle><path d="M8 12l3 3 5-6"></path></g></symbol>
<symbol id="i-warning" viewBox="0 0 24 24"><g class="dgo-i" stroke="currentColor" stroke-width="1.5" stroke-linecap="round" stroke-linejoin="round" fill="none"><path d="M12 4l10 17H2z"></path><path d="M12 10v5"></path><circle cx="12" cy="18" r="0.5" stroke-width="1.5"></circle></g></symbol>
<symbol id="i-alert" viewBox="0 0 24 24"><g class="dgo-i" stroke="currentColor" stroke-width="1.5" stroke-linecap="round" stroke-linejoin="round" fill="none"><circle cx="12" cy="12" r="9"></circle><path d="M12 7v6"></path><circle cx="12" cy="16" r="0.5" stroke-width="1.5"></circle></g></symbol>
<symbol id="i-bell" viewBox="0 0 24 24"><g class="dgo-i" stroke="currentColor" stroke-width="1.5" stroke-linecap="round" stroke-linejoin="round" fill="none"><path d="M6 16V11a6 6 0 0 1 12 0v5l2 2H4z"></path><path d="M10 20a2 2 0 0 0 4 0"></path></g></symbol>
<symbol id="i-sparkle" viewBox="0 0 24 24"><g class="dgo-i" stroke="currentColor" stroke-width="1.5" stroke-linecap="round" stroke-linejoin="round" fill="none"><path d="M12 3l1.5 4.5L18 9l-4.5 1.5L12 15l-1.5-4.5L6 9l4.5-1.5z"></path><path d="M19 16l.7 2.3L22 19l-2.3.7L19 22l-.7-2.3L16 19l2.3-.7z"></path></g></symbol>


<symbol id="i-file" viewBox="0 0 24 24"><g class="dgo-i" stroke="currentColor" stroke-width="1.5" stroke-linecap="round" stroke-linejoin="round" fill="none"><path d="M6 3h9l4 4v14H6z"></path><path d="M14 3v5h5"></path></g></symbol>
<symbol id="i-folder" viewBox="0 0 24 24"><g class="dgo-i" stroke="currentColor" stroke-width="1.5" stroke-linecap="round" stroke-linejoin="round" fill="none"><path d="M3 7a2 2 0 0 1 2-2h4l2 2h8a2 2 0 0 1 2 2v9a2 2 0 0 1-2 2H5a2 2 0 0 1-2-2z"></path></g></symbol>
<symbol id="i-mail" viewBox="0 0 24 24"><g class="dgo-i" stroke="currentColor" stroke-width="1.5" stroke-linecap="round" stroke-linejoin="round" fill="none"><rect x="3" y="5" width="18" height="14" rx="1"></rect><path d="M3 7l9 7 9-7"></path></g></symbol>
<symbol id="i-chat" viewBox="0 0 24 24"><g class="dgo-i" stroke="currentColor" stroke-width="1.5" stroke-linecap="round" stroke-linejoin="round" fill="none"><path d="M4 5h16v11H8l-4 4z"></path></g></symbol>


<symbol id="i-id" viewBox="0 0 24 24"><g class="dgo-i" stroke="currentColor" stroke-width="1.5" stroke-linecap="round" stroke-linejoin="round" fill="none"><rect x="3" y="5" width="18" height="14" rx="1"></rect><circle cx="9" cy="12" r="2.5"></circle><path d="M9 17c-1.5 0-3-.5-3-1.5"></path><path d="M14 10h4M14 13h3"></path></g></symbol>
<symbol id="i-building" viewBox="0 0 24 24"><g class="dgo-i" stroke="currentColor" stroke-width="1.5" stroke-linecap="round" stroke-linejoin="round" fill="none"><path d="M4 21V5h10v16"></path><path d="M14 21V9h6v12"></path><path d="M7 9h4M7 13h4M7 17h4M17 13h0M17 17h0"></path></g></symbol>
<symbol id="i-shield" viewBox="0 0 24 24"><g class="dgo-i" stroke="currentColor" stroke-width="1.5" stroke-linecap="round" stroke-linejoin="round" fill="none"><path d="M12 3l8 3v6c0 5-4 8-8 9-4-1-8-4-8-9V6z"></path><path d="M9 12l2 2 4-4"></path></g></symbol>
<symbol id="i-lock" viewBox="0 0 24 24"><g class="dgo-i" stroke="currentColor" stroke-width="1.5" stroke-linecap="round" stroke-linejoin="round" fill="none"><rect x="5" y="11" width="14" height="9" rx="1"></rect><path d="M8 11V8a4 4 0 0 1 8 0v3"></path></g></symbol>
<symbol id="i-user" viewBox="0 0 24 24"><g class="dgo-i" stroke="currentColor" stroke-width="1.5" stroke-linecap="round" stroke-linejoin="round" fill="none"><circle cx="12" cy="9" r="3.5"></circle><path d="M5 20c0-4 3-6 7-6s7 2 7 6"></path></g></symbol>
<symbol id="i-users" viewBox="0 0 24 24"><g class="dgo-i" stroke="currentColor" stroke-width="1.5" stroke-linecap="round" stroke-linejoin="round" fill="none"><circle cx="9" cy="9" r="3"></circle><path d="M3 20c0-3.3 2.7-5 6-5s6 1.7 6 5"></path><circle cx="17" cy="8" r="2.5"></circle><path d="M15 14c4 .2 6 2 6 5"></path></g></symbol>


<symbol id="i-settings" viewBox="0 0 24 24"><g class="dgo-i" stroke="currentColor" stroke-width="1.5" stroke-linecap="round" stroke-linejoin="round" fill="none"><circle cx="12" cy="12" r="3"></circle><path d="M19.4 15a1.7 1.7 0 0 0 .3 1.8l.1.1a2 2 0 1 1-2.8 2.8l-.1-.1a1.7 1.7 0 0 0-1.8-.3 1.7 1.7 0 0 0-1 1.5V21a2 2 0 1 1-4 0v-.1a1.7 1.7 0 0 0-1.1-1.5 1.7 1.7 0 0 0-1.8.3l-.1.1a2 2 0 1 1-2.8-2.8l.1-.1a1.7 1.7 0 0 0 .3-1.8 1.7 1.7 0 0 0-1.5-1H3a2 2 0 1 1 0-4h.1a1.7 1.7 0 0 0 1.5-1.1 1.7 1.7 0 0 0-.3-1.8l-.1-.1a2 2 0 1 1 2.8-2.8l.1.1a1.7 1.7 0 0 0 1.8.3H9a1.7 1.7 0 0 0 1-1.5V3a2 2 0 1 1 4 0v.1a1.7 1.7 0 0 0 1 1.5 1.7 1.7 0 0 0 1.8-.3l.1-.1a2 2 0 1 1 2.8 2.8l-.1.1a1.7 1.7 0 0 0-.3 1.8V9a1.7 1.7 0 0 0 1.5 1H21a2 2 0 1 1 0 4h-.1a1.7 1.7 0 0 0-1.5 1z"></path></g></symbol>
<symbol id="i-calendar" viewBox="0 0 24 24"><g class="dgo-i" stroke="currentColor" stroke-width="1.5" stroke-linecap="round" stroke-linejoin="round" fill="none"><rect x="3" y="5" width="18" height="16" rx="1"></rect><path d="M3 9h18"></path><path d="M8 3v4M16 3v4"></path></g></symbol>
<symbol id="i-clock" viewBox="0 0 24 24"><g class="dgo-i" stroke="currentColor" stroke-width="1.5" stroke-linecap="round" stroke-linejoin="round" fill="none"><circle cx="12" cy="12" r="9"></circle><path d="M12 7v5l3 2"></path></g></symbol>
<symbol id="i-globe" viewBox="0 0 24 24"><g class="dgo-i" stroke="currentColor" stroke-width="1.5" stroke-linecap="round" stroke-linejoin="round" fill="none"><circle cx="12" cy="12" r="9"></circle><path d="M3 12h18"></path><path d="M12 3c2.8 3 4 6 4 9s-1.2 6-4 9c-2.8-3-4-6-4-9s1.2-6 4-9z"></path></g></symbol>
<symbol id="i-naira" viewBox="0 0 24 24"><g class="dgo-i" stroke="currentColor" stroke-width="1.5" stroke-linecap="round" stroke-linejoin="round" fill="none"><path d="M6 20V4l12 16V4"></path><path d="M4 10h16M4 14h16"></path></g></symbol>
<symbol id="i-chart" viewBox="0 0 24 24"><g class="dgo-i" stroke="currentColor" stroke-width="1.5" stroke-linecap="round" stroke-linejoin="round" fill="none"><path d="M4 20h16"></path><path d="M7 17v-6M12 17v-9M17 17v-4"></path></g></symbol>
<symbol id="i-eye" viewBox="0 0 24 24"><g class="dgo-i" stroke="currentColor" stroke-width="1.5" stroke-linecap="round" stroke-linejoin="round" fill="none"><path d="M2 12s4-7 10-7 10 7 10 7-4 7-10 7-10-7-10-7z"></path><circle cx="12" cy="12" r="3"></circle></g></symbol>
<symbol id="i-external" viewBox="0 0 24 24"><g class="dgo-i" stroke="currentColor" stroke-width="1.5" stroke-linecap="round" stroke-linejoin="round" fill="none"><path d="M10 4H4v16h16v-6"></path><path d="M14 4h6v6"></path><path d="M20 4L10 14"></path></g></symbol>
<symbol id="i-help" viewBox="0 0 24 24"><g class="dgo-i" stroke="currentColor" stroke-width="1.5" stroke-linecap="round" stroke-linejoin="round" fill="none"><circle cx="12" cy="12" r="9"></circle><path d="M9.5 9a2.5 2.5 0 0 1 5 0c0 2-2.5 2.5-2.5 4"></path><circle cx="12" cy="17" r="0.5" stroke-width="1.5"></circle></g></symbol>
<symbol id="i-sparkle" viewBox="0 0 24 24"><g class="dgo-i" stroke="currentColor" stroke-width="1.5" stroke-linecap="round" stroke-linejoin="round" fill="none"><path d="M12 3l1.5 4.5L18 9l-4.5 1.5L12 15l-1.5-4.5L6 9l4.5-1.5z"></path><path d="M19 16l.7 2.3L22 19l-2.3.7L19 22l-.7-2.3L16 19l2.3-.7z"></path></g></symbol>

</svg>
